<?xml version="1.0" encoding="UTF-8"?>
<svg version="1.1" xmlns="http://www.w3.org/2000/svg" width="200" height="200">
<path d="M0 0 C66 0 132 0 200 0 C200 66 200 132 200 200 C134 200 68 200 0 200 C0 134 0 68 0 0 Z " fill="#FDFDFD" transform="translate(0,0)"/>
<path d="M0 0 C26.07 0 52.14 0 79 0 C79 26.07 79 52.14 79 79 C52.93 79 26.86 79 0 79 C0 52.93 0 26.86 0 0 Z " fill="#2D333D" transform="translate(14,105)"/>
<path d="M0 0 C9.01605562 6.67911812 15.23374386 14.79139955 18.0234375 25.828125 C19.93987104 38.74408854 17.3666646 50.30411313 9.57421875 60.81640625 C1.4851261 70.38346671 -8.17920807 75.17319614 -20.68359375 76.7421875 C-33.17928244 77.21712193 -43.34388597 72.54610789 -52.6015625 64.35546875 C-58.81920139 57.91388948 -64.03794341 48.3733742 -64.6015625 39.35546875 C-64.6634375 38.56914062 -64.7253125 37.7828125 -64.7890625 36.97265625 C-65.32824397 25.14436277 -61.18861957 15.31068366 -53.6015625 6.35546875 C-39.51046921 -8.92978499 -17.37093737 -10.98072768 0 0 Z " fill="#2D333D" transform="translate(167.6015625,109.64453125)"/>
<path d="M0 0 C0 25.74 0 51.48 0 78 C-25.74 78 -51.48 78 -78 78 C-78 57.65064812 -72.76965949 41.23735575 -59 26 C-58.39671875 25.31550781 -57.7934375 24.63101563 -57.171875 23.92578125 C-42.00800216 7.71063152 -21.91528907 0 0 0 Z " fill="#2C333D" transform="translate(184,14)"/>
<path d="M0 0 C7.12577374 0 12.53372783 0.1901852 19.1875 2 C20.0026709 2.21930176 20.8178418 2.43860352 21.65771484 2.66455078 C33.34262136 6.01840395 43.91875376 11.89112429 53 20 C53.74636719 20.65355469 54.49273437 21.30710937 55.26171875 21.98046875 C67.32208061 33.22179076 75.83201617 49.62555305 78 66 C78 69.96 78 73.92 78 78 C52.26 78 26.52 78 0 78 C0 52.26 0 26.52 0 0 Z " fill="#2C323C" transform="translate(14,14)"/>
<path d="M0 0 C0.33 0 0.66 0 1 0 C1 26.07 1 52.14 1 79 C-25.07 79 -51.14 79 -78 79 C-78 78.67 -78 78.34 -78 78 C-70.08 77.505 -70.08 77.505 -62 77 C-62 76.01 -62 75.02 -62 74 C-62.61875 73.38125 -63.2375 72.7625 -63.875 72.125 C-66.15252718 69.84747282 -66.9920653 68.02380411 -68 65 C-68.33 67.31 -68.66 69.62 -69 72 C-69.66 72 -70.32 72 -71 72 C-71 67.05 -71 62.1 -71 57 C-70.01 57 -69.02 57 -68 57 C-66.68 60.3 -65.36 63.6 -64 67 C-61.525 62.05 -61.525 62.05 -59 57 C-58.34 57 -57.68 57 -57 57 C-56.67 60.63 -56.34 64.26 -56 68 C-55.690625 67.030625 -55.38125 66.06125 -55.0625 65.0625 C-54 62 -54 62 -53 61 C-50.0625 60.75 -50.0625 60.75 -47 61 C-46.34 61.99 -45.68 62.98 -45 64 C-44.608125 63.505 -44.21625 63.01 -43.8125 62.5 C-41.44908285 60.54406857 -39.98564997 60.75792027 -37 61 C-36.67 59.35 -36.34 57.7 -36 56 C-35.34 56 -34.68 56 -34 56 C-34 61.28 -34 66.56 -34 72 C-36.64 72.33 -39.28 72.66 -42 73 C-42.33 74.65 -42.66 76.3 -43 78 C-28.81 78 -14.62 78 0 78 C0 52.26 0 26.52 0 0 Z " fill="#63686E" transform="translate(92,105)"/>
<path d="M0 0 C0.53625 0.165 1.0725 0.33 1.625 0.5 C4.16888302 1.18492036 4.16888302 1.18492036 7.4375 0.4375 C11.14411029 -0.01769776 12.78334144 0.20245551 16 2 C17.20272819 4.40545638 17.10071472 5.94996953 17.0625 8.625 C17.05347656 9.44226563 17.04445313 10.25953125 17.03515625 11.1015625 C17.02355469 11.72804687 17.01195313 12.35453125 17 13 C16.34 13 15.68 13 15 13 C15 10.03 15 7.06 15 4 C13.35 4 11.7 4 10 4 C10 6.97 10 9.94 10 13 C5.97963329 13.6958327 2.92129754 14.16186594 -1 13 C-1.99 13.495 -1.99 13.495 -3 14 C-6.0625 13.1875 -6.0625 13.1875 -9 12 C-10.38125018 9.23749964 -10.19079306 7.05268901 -10 4 C-8 2 -8 2 -4.9375 1.9375 C-3.4834375 1.9684375 -3.4834375 1.9684375 -2 2 C-1.67 1.67 -1.34 1.34 -1 1 C-0.67 0.67 -0.34 0.34 0 0 Z " fill="#484C53" transform="translate(69,164)"/>
<path d="M0 0 C1.20272819 2.40545638 1.10071472 3.94996953 1.0625 6.625 C1.05347656 7.44226563 1.04445313 8.25953125 1.03515625 9.1015625 C1.02355469 9.72804687 1.01195313 10.35453125 1 11 C0.34 11 -0.32 11 -1 11 C-1 8.03 -1 5.06 -1 2 C-2.65 2 -4.3 2 -6 2 C-6 4.97 -6 7.94 -6 11 C-8.31 11.33 -10.62 11.66 -13 12 C-13.02708567 10.39592672 -13.04643483 8.7917215 -13.0625 7.1875 C-13.07410156 6.29417969 -13.08570312 5.40085938 -13.09765625 4.48046875 C-13 2 -13 2 -12 -1 C-7.33774127 -2.1100616 -4.4025955 -1.9453329 0 0 Z " fill="#43474E" transform="translate(85,166)"/>
<path d="M0 0 C0.66 0 1.32 0 2 0 C2 5.28 2 10.56 2 16 C-0.64 16 -3.28 16 -6 16 C-8 14 -8 14 -8.25 10.5 C-8 7 -8 7 -6 5 C-3.375 4.875 -3.375 4.875 -1 5 C-0.67 3.35 -0.34 1.7 0 0 Z " fill="#D9DDE0" transform="translate(56,161)"/>
<path d="M0 0 C0.99 0 1.98 0 3 0 C4.32 3.3 5.64 6.6 7 10 C8.65 6.7 10.3 3.4 12 0 C12.66 0 13.32 0 14 0 C14 4.95 14 9.9 14 15 C13.34 15 12.68 15 12 15 C11.67 13.02 11.34 11.04 11 9 C10.01 10.98 9.02 12.96 8 15 C7.34 15 6.68 15 6 15 C5.01 12.69 4.02 10.38 3 8 C2.67 10.31 2.34 12.62 2 15 C1.34 15 0.68 15 0 15 C0 10.05 0 5.1 0 0 Z " fill="#DADEE3" transform="translate(21,162)"/>
<path d="M0 0 C0.99 0.103125 1.98 0.20625 3 0.3125 C5.15502531 3.54503796 5.46856135 4.56400923 5 8.3125 C3.8125 10.125 3.8125 10.125 2 11.3125 C-0.5625 11.625 -0.5625 11.625 -3 11.3125 C-5 9.3125 -5 9.3125 -5.25 5.8125 C-4.93382655 1.38607168 -4.44897929 0.46343534 0 0 Z " fill="#E2E6EA" transform="translate(42,165.6875)"/>
<path d="M0 0 C2.64 0 5.28 0 8 0 C9.20272819 2.40545638 9.10071472 3.94996953 9.0625 6.625 C9.05347656 7.44226563 9.04445313 8.25953125 9.03515625 9.1015625 C9.02355469 9.72804687 9.01195313 10.35453125 9 11 C8.34 11 7.68 11 7 11 C7 8.03 7 5.06 7 2 C5.35 2 3.7 2 2 2 C2 4.97 2 7.94 2 11 C1.34 11 0.68 11 0 11 C0 7.37 0 3.74 0 0 Z " fill="#DCE1E5" transform="translate(77,166)"/>
<path d="M0 0 C0.94875 0.04125 1.8975 0.0825 2.875 0.125 C3.205 1.775 3.535 3.425 3.875 5.125 C3.25625 4.3825 3.25625 4.3825 2.625 3.625 C0.75297662 1.69113908 0.75297662 1.69113908 -3.125 2.125 C-3.125 2.785 -3.125 3.445 -3.125 4.125 C-1.475 4.125 0.175 4.125 1.875 4.125 C1.875 4.455 1.875 4.785 1.875 5.125 C0.225 5.125 -1.425 5.125 -3.125 5.125 C-2.795 6.115 -2.465 7.105 -2.125 8.125 C-0.145 8.125 1.835 8.125 3.875 8.125 C3.875 8.785 3.875 9.445 3.875 10.125 C1.565 10.455 -0.745 10.785 -3.125 11.125 C-5.42663882 7.67254176 -5.46990322 6.17761287 -5.125 2.125 C-3.125 0.125 -3.125 0.125 0 0 Z " fill="#DBDFE3" transform="translate(64.125,165.875)"/>
<path d="M0 0 C2.125 0.9375 2.125 0.9375 4 2 C4 3.65 4 5.3 4 7 C2.34385343 7.38218767 0.67542976 7.71395102 -1 8 C-2 7 -2 7 -2.0625 3.9375 C-2.041875 2.968125 -2.02125 1.99875 -2 1 C-1.34 0.67 -0.68 0.34 0 0 Z " fill="#41454A" transform="translate(41,167)"/>
<path d="M0 0 C1.67542976 0.28604898 3.34385343 0.61781233 5 1 C5 2.65 5 4.3 5 6 C3.34385343 6.38218767 1.67542976 6.71395102 0 7 C-1 6 -1 6 -1.125 3.5 C-1 1 -1 1 0 0 Z " fill="#3B3E44" transform="translate(51,168)"/>
<path d="M0 0 C0.66 0 1.32 0 2 0 C2 4.95 2 9.9 2 15 C1.34 15 0.68 15 0 15 C-0.22786458 13.01432292 -0.45572917 11.02864583 -0.68359375 9.04296875 C-0.97170735 6.80603607 -0.97170735 6.80603607 -2 4 C-1.0625 1.8125 -1.0625 1.8125 0 0 Z " fill="#D5D9DC" transform="translate(33,162)"/>
<path d="M0 0 C1.65 0 3.3 0 5 0 C5 2.97 5 5.94 5 9 C4.67 8.34 4.34 7.68 4 7 C2.68 7 1.36 7 0 7 C0 4.69 0 2.38 0 0 Z " fill="#3A4046" transform="translate(79,168)"/>
<path d="M0 0 C0.99 0 1.98 0 3 0 C2.67 4.95 2.34 9.9 2 15 C1.34 15 0.68 15 0 15 C0 10.05 0 5.1 0 0 Z " fill="#E4E8EC" transform="translate(21,162)"/>
<path d="M0 0 C0.33 0 0.66 0 1 0 C1 3.63 1 7.26 1 11 C-0.65 10.67 -2.3 10.34 -4 10 C-2.68 6.7 -1.36 3.4 0 0 Z " fill="#373A41" transform="translate(32,168)"/>
<path d="M0 0 C1.65 0 3.3 0 5 0 C4.34 0.66 3.68 1.32 3 2 C2.53993654 4.20250992 2.53993654 4.20250992 2.375 6.625 C2.30023438 7.44226563 2.22546875 8.25953125 2.1484375 9.1015625 C2.09945312 9.72804687 2.05046875 10.35453125 2 11 C1.34 11 0.68 11 0 11 C0 7.37 0 3.74 0 0 Z " fill="#E7EAEF" transform="translate(70,166)"/>
<path d="M0 0 C4.22222222 6.33333333 4.22222222 6.33333333 3.625 10.8125 C3.41875 11.534375 3.2125 12.25625 3 13 C2.01 12.67 1.02 12.34 0 12 C0.185625 11.13375 0.37125 10.2675 0.5625 9.375 C1.00667933 5.94847372 0.71954492 3.35787629 0 0 Z " fill="#383B43" transform="translate(23,167)"/>
<path d="M0 0 C0.94875 0.350625 1.8975 0.70125 2.875 1.0625 C2.875 2.0525 2.875 3.0425 2.875 4.0625 C0.235 4.0625 -2.405 4.0625 -5.125 4.0625 C-5.125 2.7425 -5.125 1.4225 -5.125 0.0625 C-3.125 -0.9375 -3.125 -0.9375 0 0 Z " fill="#777A80" transform="translate(66.125,167.9375)"/>
<path d="M0 0 C0 0.33 0 0.66 0 1 C-1.98 1.66 -3.96 2.32 -6 3 C-6 5.31 -6 7.62 -6 10 C-6.66 10 -7.32 10 -8 10 C-8 6.7 -8 3.4 -8 0 C-5.13822943 -1.43088528 -3.06624227 -0.59991697 0 0 Z " fill="#42474B" transform="translate(66,165)"/>
<path d="M0 0 C1.32 1.32 2.64 2.64 4 4 C2.25 4.6875 2.25 4.6875 0 5 C-2.25 3.5625 -2.25 3.5625 -4 2 C-2.68 1.34 -1.36 0.68 0 0 Z " fill="#41464E" transform="translate(128,178)"/>
<path d="M0 0 C0.2475 0.61875 0.495 1.2375 0.75 1.875 C2.20628639 4.35068687 3.37812506 4.95125002 6 6 C6 6.33 6 6.66 6 7 C4.35 7 2.7 7 1 7 C-0.0625 5.1875 -0.0625 5.1875 -1 3 C-0.67 2.01 -0.34 1.02 0 0 Z " fill="#D2D5DC" transform="translate(38,170)"/>
<path d="M0 0 C2.11180592 2.57089417 3.66306057 4.63060567 4 8 C3.34 8.66 2.68 9.32 2 10 C1.01 7.03 0.02 4.06 -1 1 C-0.67 0.67 -0.34 0.34 0 0 Z " fill="#D1D4DA" transform="translate(24,165)"/>
<path d="M0 0 C1.98 0 3.96 0 6 0 C6.33 1.65 6.66 3.3 7 5 C6.5875 4.505 6.175 4.01 5.75 3.5 C3.87797662 1.56613908 3.87797662 1.56613908 0 2 C-0.33 2.66 -0.66 3.32 -1 4 C-0.67 2.68 -0.34 1.36 0 0 Z " fill="#E5E9EC" transform="translate(61,166)"/>
<path d="M0 0 C0.268125 0.639375 0.53625 1.27875 0.8125 1.9375 C1.88667752 4.33131686 1.88667752 4.33131686 5 5 C5 5.66 5 6.32 5 7 C3.35 6.67 1.7 6.34 0 6 C-1 3 -1 3 0 0 Z " fill="#D8DCE0" transform="translate(49,170)"/>
<path d="M0 0 C2.64 0 5.28 0 8 0 C7.01 0.33 6.02 0.66 5 1 C5 1.66 5 2.32 5 3 C3.35 2.67 1.7 2.34 0 2 C0 1.34 0 0.68 0 0 Z " fill="#34383D" transform="translate(61,172)"/>
</svg>
